name ./resultDataOpenSim/trcMotMarkerGrf/sub06/grf-05-04.mot
datacolumns 19
datarows 20
range 1.56000000 1.63600000
endheader

                time	     ground_force_vx	     ground_force_vy	     ground_force_vz	     ground_force_px	     ground_force_py	     ground_force_pz	   l_ground_force_vx	   l_ground_force_vy	   l_ground_force_vz	   l_ground_force_px	   l_ground_force_py	   l_ground_force_pz	     ground_torque_x	     ground_torque_y	     ground_torque_z	   l_ground_torque_x	   l_ground_torque_y	   l_ground_torque_z	
          1.56000000	         42.69970469	        394.68435158	        -13.85707980	          0.89108020	          0.00000000	          0.11655155	          0.00000000	          0.00000000	          0.00000000	          0.00000000	          0.00000000	          0.00000000	          0.00000000	          1.81436868	          0.00000000	          0.00000000	          0.00000000	          0.00000000	
          1.56400000	         45.64176458	        408.47347272	        -14.36718422	          0.89159772	          0.00000000	          0.11606412	          0.00000000	          0.00000000	          0.00000000	          0.00000000	          0.00000000	          0.00000000	          0.00000000	          1.91442609	          0.00000000	          0.00000000	          0.00000000	          0.00000000	
          1.56800000	         48.52323349	        423.35902411	        -14.12225805	          0.89219322	          0.00000000	          0.11548594	          0.00000000	          0.00000000	          0.00000000	          0.00000000	          0.00000000	          0.00000000	          0.00000000	          2.01618661	          0.00000000	          0.00000000	          0.00000000	          0.00000000	
          1.57200000	         51.31945670	        439.18620471	        -13.22173819	          0.89285620	          0.00000000	          0.11484439	          0.00000000	          0.00000000	          0.00000000	          0.00000000	          0.00000000	          0.00000000	          0.00000000	          2.12478903	          0.00000000	          0.00000000	          0.00000000	          0.00000000	
          1.57600000	         54.07510497	        455.78623506	        -11.87212488	          0.89355666	          0.00000000	          0.11417019	          0.00000000	          0.00000000	          0.00000000	          0.00000000	          0.00000000	          0.00000000	          0.00000000	          2.24488920	          0.00000000	          0.00000000	          0.00000000	          0.00000000	
          1.58000000	         56.89824185	        473.00372650	        -10.34698324	          0.89426723	          0.00000000	          0.11349269	          0.00000000	          0.00000000	          0.00000000	          0.00000000	          0.00000000	          0.00000000	          0.00000000	          2.37968776	          0.00000000	          0.00000000	          0.00000000	          0.00000000	
          1.58400000	         59.93817723	        490.70915635	         -8.93723408	          0.89495763	          0.00000000	          0.11283138	          0.00000000	          0.00000000	          0.00000000	          0.00000000	          0.00000000	          0.00000000	          0.00000000	          2.53017147	          0.00000000	          0.00000000	          0.00000000	          0.00000000	
          1.58800000	         63.35102947	        508.79928956	         -7.89980241	          0.89559720	          0.00000000	          0.11219888	          0.00000000	          0.00000000	          0.00000000	          0.00000000	          0.00000000	          0.00000000	          0.00000000	          2.69475008	          0.00000000	          0.00000000	          0.00000000	          0.00000000	
          1.59200000	         67.26476459	        527.18781412	         -7.41244919	          0.89618223	          0.00000000	          0.11160962	          0.00000000	          0.00000000	          0.00000000	          0.00000000	          0.00000000	          0.00000000	          0.00000000	          2.86941289	          0.00000000	          0.00000000	          0.00000000	          0.00000000	
          1.59600000	         71.75607290	        545.78474473	         -7.54266357	          0.89670365	          0.00000000	          0.11107036	          0.00000000	          0.00000000	          0.00000000	          0.00000000	          0.00000000	          0.00000000	          0.00000000	          3.04835262	          0.00000000	          0.00000000	          0.00000000	          0.00000000	
          1.60000000	         76.84119104	        564.47779307	         -8.23880810	          0.89715382	          0.00000000	          0.11057977	          0.00000000	          0.00000000	          0.00000000	          0.00000000	          0.00000000	          0.00000000	          0.00000000	          3.22482057	          0.00000000	          0.00000000	          0.00000000	          0.00000000	
          1.60400000	         82.47922251	        583.13645579	         -9.34777682	          0.89754802	          0.00000000	          0.11013564	          0.00000000	          0.00000000	          0.00000000	          0.00000000	          0.00000000	          0.00000000	          0.00000000	          3.39191989	          0.00000000	          0.00000000	          0.00000000	          0.00000000	
          1.60800000	         88.58487333	        601.62935587	        -10.65527073	          0.89790639	          0.00000000	          0.10972993	          0.00000000	          0.00000000	          0.00000000	          0.00000000	          0.00000000	          0.00000000	          0.00000000	          3.54316333	          0.00000000	          0.00000000	          0.00000000	          0.00000000	
          1.61200000	         95.04929221	        619.83203327	        -11.93521232	          0.89824459	          0.00000000	          0.10935902	          0.00000000	          0.00000000	          0.00000000	          0.00000000	          0.00000000	          0.00000000	          0.00000000	          3.67284160	          0.00000000	          0.00000000	          0.00000000	          0.00000000	
          1.61600000	        101.76617653	        637.61922558	        -12.99383387	          0.89857570	          0.00000000	          0.10902082	          0.00000000	          0.00000000	          0.00000000	          0.00000000	          0.00000000	          0.00000000	          0.00000000	          3.77639532	          0.00000000	          0.00000000	          0.00000000	          0.00000000	
          1.62000000	        108.65064837	        654.84343648	        -13.70321498	          0.89890466	          0.00000000	          0.10871121	          0.00000000	          0.00000000	          0.00000000	          0.00000000	          0.00000000	          0.00000000	          0.00000000	          3.85093864	          0.00000000	          0.00000000	          0.00000000	          0.00000000	
          1.62400000	        115.64526892	        671.31288031	        -14.02210806	          0.89923508	          0.00000000	          0.10842337	          0.00000000	          0.00000000	          0.00000000	          0.00000000	          0.00000000	          0.00000000	          0.00000000	          3.89587647	          0.00000000	          0.00000000	          0.00000000	          0.00000000	
          1.62800000	        122.71475177	        686.79252024	        -13.99905374	          0.89956489	          0.00000000	          0.10815206	          0.00000000	          0.00000000	          0.00000000	          0.00000000	          0.00000000	          0.00000000	          0.00000000	          3.91336427	          0.00000000	          0.00000000	          0.00000000	          0.00000000	
          1.63200000	        129.83400454	        701.03759710	        -13.75679215	          0.89989032	          0.00000000	          0.10789570	          0.00000000	          0.00000000	          0.00000000	          0.00000000	          0.00000000	          0.00000000	          0.00000000	          3.90835345	          0.00000000	          0.00000000	          0.00000000	          0.00000000	
          1.63600000	        136.97755733	        713.83346323	        -13.46258399	          0.90021281	          0.00000000	          0.10765100	          0.00000000	          0.00000000	          0.00000000	          0.00000000	          0.00000000	          0.00000000	          0.00000000	          3.88813319	          0.00000000	          0.00000000	          0.00000000	          0.00000000	
